<svg xmlns="http://www.w3.org/2000/svg" viewBox="0 0 64 64">
  <rect width="64" height="64" rx="14" fill="#3f5139"/>
  <g transform="translate(10,15) scale(0.68)" fill="none" stroke="#cBA96a" stroke-width="2.4" stroke-linecap="round" stroke-linejoin="round">
    <path d="M32 5c-3.4 6.2-3.4 18.6 0 28 3.4-9.4 3.4-21.8 0-28Z"/>
    <path d="M32 33c-5-4.4-9-12-9.4-19.2C27 16.2 30.4 23.6 32 33Z"/>
    <path d="M32 33c5-4.4 9-12 9.4-19.2C37 16.2 33.6 23.6 32 33Z"/>
    <path d="M32 33c-7.6-2.2-14-7-17.2-13.4C21 20.8 27.6 25.6 32 33Z"/>
    <path d="M32 33c7.6-2.2 14-7 17.2-13.4C43 20.8 36.4 25.6 32 33Z"/>
  </g>
</svg>
